<svg xmlns="http://www.w3.org/2000/svg" width="122" height="53" fill="none"><path fill="#3D4A39" d="M107 2c4 0 7 1 10 4s5 7 5 11a14 14 0 0 1-6 12c-7-4-14-6-14-12l4 5 1-1 4-1c2-1 3-2 3-4l-3-4-3-2V7c-4 1-8 5-9 9-2 5-2 9-1 13l-2-2c-3-2-4-6-4-10s1-8 4-11 7-4 11-4Z"/><path fill="#3D4A39" d="m110 9 3 2 2 3 1 3a9 9 0 0 1-6 9h-7l-3-2-2-3-1-4a9 9 0 0 1 3-6l3-2-2 2-2 3-1 3a8 8 0 0 0 3 6 8 8 0 0 0 9 2l3-2 2-2v-4a8 8 0 0 0-2-6l-3-2Zm-3-7a15 15 0 0 1 10 4l4 5 1 6a15 15 0 0 1-15 15l-6-1c-2 0-4-2-5-3-2-1-3-3-3-5l-2-6a15 15 0 0 1 5-11l5-3 6-1Zm5 2-5-1a14 14 0 0 0-15 14 14 14 0 0 0 15 15l5-1 5-3c1-2 3-3 3-5l1-6a14 14 0 0 0-4-10c-1-2-3-3-5-3Z"/><path fill="#DDD5C1" d="m103 9-4 7-1 2a8 8 0 0 0 3 5 8 8 0 0 0 8 2c-4-2-7-4-7-8l4 5 1-1 4-1c2-1 3-2 3-4l-3-4-3-2V7l-5 2Z"/><path fill="#AE7B3C" d="M110 26h-7l-3-2a9 9 0 0 1-2-4v9a14 14 0 0 0 9 3 15 15 0 0 0 9-4l-6-2Z"/><path fill="#3D4A39" d="M75 2c4 0 8 1 11 4l-4 5c-2-2-4-3-7-3l-6 3c-2 1-3 3-3 6l3 6 6 3 5-2 3-3h-8v-6h15a15 15 0 0 1-15 17c-4 0-7-2-10-5-3-2-5-6-5-10s2-8 5-11 6-4 10-4Z"/><path fill="#3D4A39" d="M76 2a15 15 0 0 1 10 4l-4 5h-1l-2-2-4-1a9 9 0 0 0-6 3l-2 3v3a8 8 0 0 0 2 6 8 8 0 0 0 11 1 9 9 0 0 0 3-3h-8v-6h16l-1 7-4 6-5 3-6 1-6-1-4-3a15 15 0 0 1 0-22 15 15 0 0 1 10-4h1Zm5 1-6-1a14 14 0 0 0-13 9l-1 6 1 6 3 4a14 14 0 0 0 10 4 15 15 0 0 0 14-9l1-7H75v5h9v1a9 9 0 0 1-3 4 9 9 0 0 1-6 1h-3l-3-3c-1 0-2-1-2-3l-1-3a9 9 0 0 1 3-7 9 9 0 0 1 13 0l3-4-4-3ZM52 18V2h6v30L40 15v17h-6V2l18 16Z"/><path fill="#3D4A39" d="M51 17V1h8v33L41 17v15h-8V0l18 17Zm2-14v17L35 3v28h4V14l18 17V3h-4ZM25 2h5v30h-5V2Z"/><path fill="#3D4A39" d="M25 2h6v30h-7V2h1Zm5 1h-5v28h5V3ZM11 16l2-1a4 4 0 0 0 0-6l-3-1H6v8h5ZM0 2h10c3 0 6 1 8 3l2 3 1 4v1l-2 5-4 3 7 11h-7L6 19v13H0V2Z"/><path fill="#3D4A39" d="M11 16a3 3 0 0 0 2-1 4 4 0 0 0 1-3 4 4 0 0 0-1-3h-1l-2-1H7v8h4Zm1 0-1 1H8v-1H6V8h6l1 1 1 1 1 2a5 5 0 0 1-1 3l-2 1ZM0 2h10l4 1 4 2a14 14 0 0 1 2 3l1 2v3a9 9 0 0 1-2 5 8 8 0 0 1-3 3l7 11h-8L7 20v12H0V2Zm10 1H1v28h5V17l9 14h6l-6-10a8 8 0 0 0 3-3l2-3v-5l-1-2V7l-2-2-3-2h-4Z"/><path fill="#AE7B3C" d="M6 51h2a4 4 0 0 0 2-2V38h2v11l-1 2-2 2H4a5 5 0 0 1-3-4l-1-2v-9h2v9l1 2v1l2 1h1ZM23 44h2l5-6h3l-6 6v1h-1 1v1l6 7h-2v-1l-5-6h-3v7h-2V38h2v6ZM45 45h1l2-1v-4l-3-1h-2v6h2Zm7 8h-2l-1-1-4-5h-2v6h-2V38h6l2 1 1 1v3l-1 2-1 1h-1v1l5 6ZM67 47l-3-6a12 12 0 0 1 0-1l-1 1-2 6h6Zm4 6h-2l-1-1-1-3h-7l-1 3v1h-2l6-15h2l6 15ZM79 53h-2V38h2v15ZM101 38v15h-2v-1l-9-11a13 13 0 0 1 0 1v11h-1V38h1l9 11V38h2ZM117 47l-2-6a12 12 0 0 1 0-1l-1 1-2 6h5Zm5 6h-2l-1-1-1-3h-7l-1 3v1h-2l6-15h2l6 15Z"/></svg>